<svg xmlns="http://www.w3.org/2000/svg" viewBox="0 0 512 512"><rect width="512" height="512" fill="#2e7d32"/><g transform="translate(256 262) scale(0.72) translate(-256 -262)"><g fill="#fff" stroke="#fff"><circle cx="256" cy="118" r="24" stroke="none"/><rect x="243" y="118" width="26" height="270" rx="6" stroke="none"/><rect x="150" y="378" width="212" height="32" rx="16" stroke="none"/><rect x="100" y="150" width="312" height="24" rx="12" stroke="none"/><g stroke-width="8" stroke-linecap="round" fill="none"><path d="M124 168 L78 282 M124 168 L170 282 M388 168 L342 282 M388 168 L434 282"/></g><path d="M62 282 h124 a62 62 0 0 1 -124 0 z M326 282 h124 a62 62 0 0 1 -124 0 z" stroke="none"/></g></g></svg>
